<svg width="185" height="21" viewBox="0 0 185 21" fill="none" xmlns="http://www.w3.org/2000/svg">
<g clip-path="url(#clip0_1_190)">
<g clip-path="url(#clip1_1_190)">
<g clip-path="url(#clip2_1_190)">
<g clip-path="url(#clip3_1_190)">
<g clip-path="url(#clip4_1_190)">
<path d="M101.168 5.00771C100.922 4.92625 100.657 4.86985 100.399 4.87612C99.869 4.88865 99.3395 4.93878 98.8099 5.00145C98.6397 5.02025 98.5641 4.97638 98.4821 4.83852C97.9778 4.03013 97.4798 3.21548 96.9502 2.41962C96.6098 1.90576 96.1937 1.4483 95.6768 1.09737C94.9644 0.614849 94.3025 0.677515 93.6973 1.29164C93.5901 1.39817 93.4893 1.51097 93.3884 1.6175C92.5248 2.52615 91.4972 3.12774 90.2112 3.20294C89.7699 3.22801 89.3286 3.20921 88.8873 3.20921C87.9417 3.20921 87.431 3.71053 87.4184 4.65052C87.4184 4.66305 87.4184 4.66932 87.4184 4.68185C87.4121 5.19571 87.4878 5.69704 87.6139 6.1921C87.866 7.16341 88.1434 8.12847 88.4019 9.09352C88.4397 9.23138 88.4964 9.26272 88.6288 9.25018C89.4925 9.16245 90.3624 9.10605 91.2198 8.98699C92.8652 8.76139 94.4601 8.35406 95.9794 7.68354C96.3324 7.52688 96.6728 7.35141 97.0133 7.18848C97.0196 7.19475 97.0196 7.19475 97.0259 7.20101C96.9754 7.23861 96.925 7.27621 96.8746 7.30755C94.706 8.71126 92.3293 9.57604 89.7825 9.95204C88.9062 10.0836 88.0173 10.1275 87.1348 10.2152C87.0465 10.2215 86.9519 10.2654 86.8889 10.328C86.7439 10.4722 86.6115 10.6288 86.4854 10.7918C86.435 10.8544 86.3909 10.9359 86.353 11.0111C86.1135 11.4748 86.2648 11.8571 86.7817 11.9636C87.1158 12.0325 87.4689 12.0701 87.8093 12.0639C88.8053 12.0451 89.7699 11.832 90.7281 11.5813C93.3002 10.8983 95.7525 9.90817 98.0787 8.62353C99.0306 8.1034 99.9447 7.52688 100.758 6.79995C101.054 6.53049 101.338 6.2485 101.521 5.87877C101.716 5.47771 101.603 5.15185 101.168 5.00771Z" fill="url(#paint0_linear_1_190)"/>
<path d="M0 13.1668C0 8.59219 3.51769 5.35864 8.3088 5.35864C11.0952 5.35864 13.3395 6.36756 14.802 8.19113L12.085 10.6351C11.133 9.50085 9.97308 8.87419 8.52314 8.87419C6.03932 8.87419 4.31831 10.5912 4.31831 13.1668C4.31831 15.7423 6.04563 17.4594 8.52314 17.4594C9.96678 17.4594 11.133 16.839 12.085 15.6985L14.802 18.1424C13.3332 19.966 11.0889 20.9749 8.3088 20.9749C3.51769 20.9749 0 17.7351 0 13.1668Z" fill="white"/>
<path d="M18.8867 5.68451H23.1609V17.3341H30.3665V20.6992H18.8867V5.68451Z" fill="white"/>
<path d="M34.2119 5.68451H38.4861V20.6992H34.2119V5.68451Z" fill="white"/>
<path d="M42.9121 13.1918C42.9121 8.62351 46.4298 5.3837 51.2209 5.3837C54.0073 5.3837 56.2516 6.39262 57.7141 8.21619L54.9971 10.6601C54.0451 9.5259 52.8852 8.89924 51.4352 8.89924C48.9514 8.89924 47.2304 10.6163 47.2304 13.1918C47.2304 15.7674 48.9577 17.4844 51.4352 17.4844C52.8789 17.4844 54.0451 16.8641 54.9971 15.7235L57.7141 18.1675C56.2453 19.9911 54.001 21 51.2209 21C46.4298 21 42.9121 17.7602 42.9121 13.1918Z" fill="white"/>
<path d="M67.5984 15.2473L66.0035 16.9393V20.6929H61.7734V5.68451H66.0035V11.926L71.8537 5.68451H76.5565L70.3848 12.3333L76.8781 20.6992H71.9167L67.5984 15.2473Z" fill="white"/>
<path d="M106.583 13.1918C106.583 8.68618 110.145 5.3837 114.98 5.3837C119.815 5.3837 123.371 8.68618 123.371 13.1918C123.371 17.6975 119.809 21 114.98 21C110.145 21 106.583 17.6975 106.583 13.1918ZM119.053 13.1918C119.053 10.5975 117.262 8.89924 114.974 8.89924C112.685 8.89924 110.895 10.5912 110.895 13.1918C110.895 15.7925 112.685 17.4844 114.974 17.4844C117.262 17.4782 119.053 15.7862 119.053 13.1918Z" fill="white"/>
<path d="M126.719 19.3456L128.125 16.2123C129.461 17.0897 131.359 17.6912 133.111 17.6912C134.883 17.6912 135.57 17.1962 135.57 16.4693C135.57 14.088 126.984 15.8238 126.984 10.2466C126.984 7.56447 129.184 5.37744 133.672 5.37744C135.639 5.37744 137.663 5.82863 139.15 6.68715L137.833 9.83924C136.389 9.06845 134.965 8.67992 133.647 8.67992C131.857 8.67992 131.207 9.28151 131.207 10.0335C131.207 12.3271 139.775 10.61 139.775 16.1497C139.775 18.7691 137.574 21 133.086 21C130.608 21 128.143 20.3357 126.719 19.3456Z" fill="white"/>
<path d="M142.845 19.3456L144.251 16.2123C145.587 17.0897 147.485 17.6912 149.237 17.6912C151.009 17.6912 151.696 17.1962 151.696 16.4693C151.696 14.088 143.109 15.8238 143.109 10.2466C143.109 7.56447 145.31 5.37744 149.798 5.37744C151.765 5.37744 153.789 5.82863 155.276 6.68715L153.959 9.83924C152.515 9.06845 151.09 8.67992 149.773 8.67992C147.983 8.67992 147.333 9.28151 147.333 10.0335C147.333 12.3271 155.901 10.61 155.901 16.1497C155.901 18.7691 153.7 21 149.212 21C146.728 21 144.269 20.3357 142.845 19.3456Z" fill="white"/>
<path d="M100.21 12.866C101.509 12.2017 102.24 11.0424 102.24 9.60736C102.24 8.65484 101.893 7.82766 101.225 7.17593C101.162 7.23233 101.111 7.295 101.048 7.3514C100.235 8.07832 99.321 8.64858 98.3691 9.17497C98.1611 9.28777 97.953 9.38803 97.745 9.49456C97.8648 9.68883 97.9278 9.91443 97.9278 10.1839C97.9278 11.1489 97.1965 11.644 95.7718 11.644H92.8341V11.5876C92.2352 11.7881 91.63 11.9699 91.0185 12.1328C90.2242 12.3459 89.4236 12.5151 88.6104 12.584V20.6929H96.7679C100.821 20.6929 102.984 19.1701 102.984 16.5758C102.977 14.7585 101.918 13.4676 100.21 12.866ZM96.4148 17.6286H92.8341V14.583H96.4148C97.8837 14.583 98.6591 15.0781 98.6591 16.1058C98.6591 17.1398 97.8837 17.6286 96.4148 17.6286Z" fill="white"/>
<path d="M181.047 8.71128H184.993C184.993 7.72742 184.993 6.73731 185 5.75346V5.74092V5.38373H181.047V6.24851C181.047 7.06944 181.047 7.89036 181.047 8.71128Z" fill="url(#paint1_linear_1_190)"/>
<path d="M184.993 12.4524C184.993 11.2743 184.993 10.5975 184.993 9.41314H181.047C181.047 11.7944 181.047 13.6744 181.047 16.0557C181.047 18.1863 179.313 17.7727 179.175 17.7351C178.79 17.6035 178.519 17.3153 178.33 16.9017C178.059 16.2876 177.769 15.6734 177.491 15.0593C176.281 12.4023 175.083 9.739 173.854 7.08824C173.35 6.00412 172.448 5.42133 171.244 5.4088C170.034 5.39627 169.138 5.97279 168.59 7.04437C168.3 7.6209 168.048 8.21622 167.783 8.80528C167.342 9.77033 166.907 10.7354 166.465 11.7067C165.11 14.6833 163.755 17.6599 162.399 20.6366C162.349 20.7494 162.305 20.8622 162.248 20.9875C162.324 20.9938 162.368 20.9938 162.418 20.9938C162.923 20.9938 163.427 21 163.931 20.9875L166.131 20.9938C166.131 20.9938 166.131 20.9938 166.138 20.9938H166.32L166.44 20.6804C167.285 18.5561 168.136 16.4254 168.993 14.3011C169.378 13.3423 169.769 12.3835 170.166 11.431C170.399 10.8732 170.954 10.6289 171.496 10.8419C171.843 10.9735 172.007 11.2618 172.139 11.5814C172.599 12.7344 173.066 13.8812 173.532 15.0343C173.848 15.8176 174.182 16.5884 174.484 17.3779C174.85 18.3242 175.398 19.1389 176.174 19.7718C176.174 19.7718 176.287 19.8783 176.527 20.0412C176.546 20.06 176.571 20.0726 176.59 20.0851C176.722 20.1728 176.892 20.2731 177.1 20.3796C177.107 20.3859 177.119 20.3922 177.126 20.3984C177.309 20.4924 177.498 20.5802 177.687 20.6491C177.693 20.6491 177.699 20.6554 177.706 20.6554C177.712 20.6554 177.712 20.6554 177.718 20.6616C177.731 20.6679 177.737 20.6679 177.75 20.6742C177.769 20.6804 177.788 20.6867 177.8 20.693C178.122 20.8058 178.45 20.8872 178.79 20.9374C180.057 21.1128 181.261 20.906 182.358 20.2355C183.903 19.2955 184.792 17.9169 184.955 16.1184C185.012 15.5042 185 14.8776 185 14.2572V13.2232C185 12.9663 184.993 12.7094 184.993 12.4524Z" fill="url(#paint2_linear_1_190)"/>
</g>
</g>
</g>
</g>
</g>
<defs>
<linearGradient id="paint0_linear_1_190" x1="86.1773" y1="11.8489" x2="99.0028" y2="1.19056" gradientUnits="userSpaceOnUse">
<stop stop-color="#02DBFF"/>
<stop offset="1" stop-color="#662D91"/>
</linearGradient>
<linearGradient id="paint1_linear_1_190" x1="161.043" y1="19.3366" x2="185.242" y2="5.64305" gradientUnits="userSpaceOnUse">
<stop stop-color="#02DBFF"/>
<stop offset="1" stop-color="#662D91"/>
</linearGradient>
<linearGradient id="paint2_linear_1_190" x1="161.93" y1="20.9048" x2="186.13" y2="7.21123" gradientUnits="userSpaceOnUse">
<stop stop-color="#02DBFF"/>
<stop offset="1" stop-color="#662D91"/>
</linearGradient>
<clipPath id="clip0_1_190">
<rect width="185" height="21" fill="white"/>
</clipPath>
<clipPath id="clip1_1_190">
<rect width="185" height="21" fill="white"/>
</clipPath>
<clipPath id="clip2_1_190">
<rect width="185" height="21" fill="white"/>
</clipPath>
<clipPath id="clip3_1_190">
<rect width="185" height="21" fill="white"/>
</clipPath>
<clipPath id="clip4_1_190">
<rect width="185" height="20.2222" fill="white" transform="translate(0 0.777771)"/>
</clipPath>
</defs>
</svg>
